<svg id="Capa_1" enable-background="new 0 0 512 512" height="512" viewBox="0 0 512 512" width="512" xmlns="http://www.w3.org/2000/svg"><g><g><path d="m410.766 58.553h-69.734v-6.468c0-5.522-4.477-10-10-10h-32.862c-.046-23.214-18.945-42.085-42.17-42.085s-42.124 18.871-42.17 42.085h-32.862c-5.523 0-10 4.478-10 10v6.468h-69.734c-19.874 0-36.043 16.169-36.043 36.043v381.361c0 9.858 0 36.043 26.043 36.043h319.532c19.874 0 36.042-16.169 36.042-36.043v-381.361c.001-19.874-16.168-36.043-36.042-36.043zm-219.798 3.532h34.419c3.199 0 6.205-1.53 8.087-4.117s2.412-5.918 1.427-8.962c-.711-2.196-1.071-4.496-1.071-6.836 0-12.225 9.945-22.17 22.17-22.17s22.17 9.945 22.17 22.17c0 2.34-.36 4.64-1.071 6.836-.985 3.044-.455 6.375 1.427 8.962s4.888 4.117 8.087 4.117h34.419v40.469h-130.064zm235.841 413.872c0 8.846-7.197 16.043-16.042 16.043h-319.533c-3.481 0-3.89-.87-4.363-1.878-1.489-3.17-1.68-9.235-1.68-14.165v-381.361c0-8.846 7.197-16.043 16.043-16.043h69.734v24.001h-51.776c-5.523 0-10 4.478-10 10v345.446c0 5.522 4.477 10 10 10h273.617c5.523 0 10-4.478 10-10v-121.109c0-5.522-4.477-10-10-10s-10 4.478-10 10v111.109h-253.618v-325.446h253.617v123.925c0 5.523 4.477 10 10 10s10-4.477 10-10v-133.925c0-5.522-4.477-10-10-10h-51.776v-24.001h69.734c8.846 0 16.042 7.197 16.042 16.043v381.361z"/><path d="m402.04 288.04c-1.66-3.987-5.813-6.524-10.123-6.135-4.139.373-7.683 3.37-8.767 7.375-1.07 3.956.494 8.34 3.838 10.714 3.419 2.427 8.05 2.464 11.507.093 3.85-2.64 5.308-7.749 3.545-12.047z"/><path d="m340.397 164.27c-11.781-11.085-26.838-17.442-41.311-17.442-19.261 0-34.587 9.599-43.217 16.618-8.861-7.009-24.398-16.618-42.956-16.618-17.878 0-36.503 9.77-48.609 25.496-5.061 6.575-8.706 13.781-10.836 21.422-.085.304-.167.607-.244.905-1.004 3.842-1.609 7.771-1.796 11.681-.001 0-.001.001-.001.001-.272 5.691.058 11.082 1.01 16.482 1.603 9.093 4.898 17.659 10.373 26.961 7.645 12.985 31.753 33.179 60.127 56.296 5.768 4.7 11.217 9.14 15.341 12.633 5.111 4.33 11.376 6.495 17.644 6.495 6.262 0 12.525-2.163 17.635-6.487 4.162-3.522 9.669-8.006 15.5-12.751 28.405-23.121 52.536-43.307 60.128-56.178 3.478-5.895 6.066-11.498 7.912-17.128 2.78-8.482 3.917-17.093 3.476-26.323-.748-15.587-7.913-30.524-20.176-42.063zm-168.993 43.018c.122-2.526.515-5.075 1.171-7.586.052-.199.106-.397.16-.591 1.436-5.151 3.932-10.059 7.418-14.59 8.274-10.749 21.133-17.694 32.76-17.694 14.619 0 27.628 9.75 32.542 13.941 6.063 5.171 15.143 5.091 21.122-.188 5.818-5.137 17.777-13.754 32.509-13.754 18.299 0 40.417 17.674 41.508 40.46.262 5.464-.225 10.605-1.484 15.613h-19.062l-8.517-18.823c-1.609-3.558-5.142-5.853-9.045-5.878-3.893-.045-7.466 2.224-9.122 5.759l-12.98 27.718-6.693-13.128c-1.752-3.438-5.351-5.574-9.18-5.454-3.855.104-7.308 2.417-8.871 5.942l-8.849 19.958-15.298-42.404c-1.228-3.402-4.197-5.877-7.766-6.471-3.567-.6-7.179.786-9.442 3.607l-24.94 31.096h-15.928c-.535-1.823-.961-3.643-1.284-5.479-.69-3.919-.928-7.862-.729-12.054zm105.027 83.16c-5.907 4.809-11.486 9.35-15.795 12.997-2.732 2.311-6.698 2.311-9.432-.002-4.27-3.618-9.79-8.115-15.635-12.878-16.862-13.738-41.161-33.536-51.652-45.743h10.226c3.034 0 5.903-1.377 7.801-3.743l16.786-20.93 17.7 49.062c1.386 3.842 4.97 6.455 9.051 6.601.12.004.238.006.357.006 3.942 0 7.533-2.322 9.14-5.946l10.433-23.53 6.445 12.641c1.735 3.404 5.299 5.537 9.076 5.457 3.819-.065 7.269-2.299 8.889-5.758l12.443-26.569 2.222 4.911c1.619 3.579 5.183 5.878 9.111 5.878h16.058c-9.399 11.875-35.442 33.073-53.224 47.546z"/><path d="m344.188 352.234h-176.375c-5.523 0-10 4.478-10 10s4.477 10 10 10h176.375c5.523 0 10-4.478 10-10s-4.478-10-10-10z"/><path d="m344.188 392.234h-176.375c-5.523 0-10 4.478-10 10s4.477 10 10 10h176.375c5.523 0 10-4.478 10-10s-4.478-10-10-10z"/></g></g></svg>