<svg id="Capa_1" enable-background="new 0 0 512 512" height="512" viewBox="0 0 512 512" width="512" xmlns="http://www.w3.org/2000/svg"><g><g><g><g><path d="m419.336 0h-285.668c-1.038 0-2.07.161-3.058.479-4.907 1.576-47.946 16.291-47.946 47.177v410.593.02.039c0 18.578 15.114 33.692 33.692 33.692h16.672v10c0 3.136 1.471 6.091 3.974 7.98s5.746 2.494 8.763 1.638l29.565-8.413 29.564 8.413c.9.256 1.821.382 2.736.382 2.15 0 4.271-.694 6.027-2.02 2.503-1.89 3.974-4.845 3.974-7.98v-10h201.705c5.522 0 10-4.478 10-10v-472c0-5.523-4.478-10-10-10zm-266.308 424.615v-78.197h82.948c5.523 0 10-4.478 10-10s-4.477-10-10-10h-82.948v-218.213h256.308v218.213h-82.947c-5.522 0-10 4.478-10 10s4.478 10 10 10h82.947v78.197zm256.308-336.41h-256.308v-68.205h256.308zm-276.308-67.344v403.754h-16.672c-4.873 0-9.507 1.04-13.692 2.909v-379.868c0-12.317 19.686-22.591 30.364-26.795zm-16.672 451.139c-7.55 0-13.692-6.143-13.692-13.692 0-7.55 6.142-13.692 13.692-13.692h16.672v27.384zm81.275 16.758-19.564-5.567c-1.788-.509-3.684-.509-5.474 0l-19.565 5.567v-44.143h44.603zm211.705-16.758h-191.705v-27.385h191.705z"/><path d="m290.6 332.59c-1.612-3.866-5.579-6.388-9.77-6.161-4.16.225-7.818 3.107-9.03 7.089-1.194 3.924.202 8.345 3.478 10.833 3.383 2.57 8.101 2.726 11.642.379 3.936-2.61 5.461-7.791 3.68-12.14z"/><path d="m351.461 229.469v-24.315c0-12.292-9.957-22.293-22.196-22.293h-13.835v-14.041c0-12.293-9.957-22.294-22.196-22.294h-24.103c-12.239 0-22.196 10.001-22.196 22.294v14.041h-13.835c-12.239 0-22.196 10.001-22.196 22.293v24.315c0 12.292 9.957 22.293 22.196 22.293h13.835v14.041c0 12.293 9.957 22.294 22.196 22.294h24.103c12.239 0 22.196-10.001 22.196-22.294v-14.041h13.835c12.239 0 22.196-10.001 22.196-22.293zm-46.031 2.293c-5.523 0-10 4.478-10 10v24.041c0 1.265-.985 2.294-2.196 2.294h-24.103c-1.211 0-2.196-1.029-2.196-2.294v-24.041c0-5.522-4.478-10-10-10h-23.835c-1.211 0-2.196-1.028-2.196-2.293v-24.315c0-1.265.985-2.293 2.196-2.293h23.835c5.522 0 10-4.478 10-10v-24.041c0-1.265.985-2.294 2.196-2.294h24.103c1.211 0 2.196 1.029 2.196 2.294v24.041c0 5.522 4.478 10 10 10h23.835c1.211 0 2.196 1.028 2.196 2.293v24.315c0 1.265-.985 2.293-2.196 2.293z"/></g></g></g></g></svg>