<svg id="Capa_1" enable-background="new 0 0 512 512" height="512" viewBox="0 0 512 512" width="512" xmlns="http://www.w3.org/2000/svg"><g><g><g><path d="m235.39 116.864c0-5.523-4.478-10-10-10s-10 4.477-10 10v7.771c0 5.522 4.478 10 10 10s10-4.478 10-10z"/><path d="m286.61 134.635c5.522 0 10-4.478 10-10v-7.771c0-5.523-4.478-10-10-10-5.523 0-10 4.477-10 10v7.771c0 5.522 4.478 10 10 10z"/><path d="m275.861 168.649c3.921-3.89 3.946-10.222.057-14.143-3.89-3.921-10.222-3.945-14.143-.057-3.184 3.16-8.367 3.16-11.551 0-3.921-3.89-10.253-3.865-14.143.057-3.89 3.921-3.864 10.253.057 14.143 5.476 5.432 12.669 8.148 19.861 8.148 7.193 0 14.387-2.716 19.862-8.148z"/><path d="m287.041 370.55c0-11.397-9.233-20.668-20.583-20.668h-20.916c-11.35 0-20.583 9.271-20.583 20.668v10.861h-10.683c-11.35 0-20.583 9.271-20.583 20.668v21.099c0 11.396 9.233 20.668 20.583 20.668h10.683v10.862c0 11.396 9.233 20.668 20.583 20.668h20.916c11.35 0 20.583-9.272 20.583-20.668v-10.862h10.683c11.35 0 20.583-9.272 20.583-20.668v-21.099c0-11.397-9.233-20.668-20.583-20.668h-10.683zm10.683 30.861c.321 0 .583.3.583.668v21.099c0 .368-.262.668-.583.668h-20.683c-5.522 0-10 4.478-10 10v20.862c0 .368-.262.668-.583.668h-20.916c-.321 0-.583-.3-.583-.668v-20.862c0-5.522-4.478-10-10-10h-20.683c-.321 0-.583-.3-.583-.668v-21.099c0-.368.262-.668.583-.668h20.683c5.522 0 10-4.478 10-10v-20.861c0-.368.262-.668.583-.668h20.916c.321 0 .583.3.583.668v20.861c0 5.522 4.478 10 10 10z"/><path d="m470.478 268.807h-104.52c-2.748-13.931-9.866-26.226-19.844-35.449 24.901-7.478 43.095-30.612 43.095-57.915 0-8.66-1.86-17.214-5.417-25.037 3.556-7.973 5.417-16.675 5.417-25.466v-4.692c0-23.157-12.789-44.126-32.672-54.911 2.081-5.371 3.224-11.206 3.224-17.303.001-26.486-21.547-48.034-48.033-48.034h-108.196c-26.485 0-48.033 21.548-48.033 48.033 0 5.751 1.017 11.27 2.878 16.385-20.891 10.476-34.423 31.959-34.423 55.829v4.692c0 8.304 1.669 16.561 4.858 24.175-3.953 8.171-6.022 17.17-6.022 26.328 0 27.304 18.194 50.438 43.095 57.915-9.978 9.223-17.096 21.518-19.844 35.449h-104.52c-5.522 0-10 4.478-10 10v44.45c0 5.522 4.478 10 10 10h16.936v168.744c0 5.522 4.478 10 10 10h375.086c5.522 0 10-4.478 10-10v-168.743h16.935c5.523 0 10-4.478 10-10v-44.45c0-5.523-4.477-10-10-10zm-101.268-148.56v4.692c0 7.234-1.849 14.372-5.346 20.643-1.706 3.06-1.688 6.789.05 9.831 3.465 6.065 5.296 12.991 5.296 20.029 0 22.307-18.148 40.455-40.455 40.455h-42.716v-10.526c19.411-3.447 61.531-14.565 61.531-46.118v-76.022c13.19 7.418 21.64 21.494 21.64 37.016zm-132.142 66.552c-16.807-1.889-51.511-11.107-51.511-27.546v-66.675c5.555 2.25 11.623 3.49 17.975 3.49h108.196c5.548 0 10.88-.946 15.842-2.685v65.87c0 16.428-35.45 25.65-52.61 27.543-5.075.551-8.921 4.836-8.921 9.941v19.16h-20.078v-19.16c0-5.091-3.833-9.37-8.893-9.938zm-33.536-166.799h108.196c15.458 0 28.033 12.575 28.033 28.033s-12.575 28.034-28.033 28.034h-108.196c-15.458 0-28.033-12.576-28.033-28.034s12.575-28.033 28.033-28.033zm-20.287 195.898c-22.307 0-40.455-18.149-40.455-40.455 0-7.372 1.999-14.584 5.781-20.855 1.811-3.004 1.917-6.738.276-9.839-3.247-6.141-4.894-12.805-4.894-19.809v-4.692c0-15.534 8.428-29.58 21.604-36.999v76.005c0 31.47 41.254 42.614 60.403 46.091v10.554h-42.715zm27.305 20h90.9c20.758 0 38.385 13.802 43.94 32.909h-178.781c5.556-19.108 23.183-32.909 43.941-32.909zm249.928 77.359h-159.272c-5.522 0-10 4.478-10 10s4.478 10 10 10h132.337v158.743h-355.086v-158.743h132.337c5.523 0 10-4.478 10-10s-4.477-10-10-10h-159.273v-24.45h408.957z"/><path d="m246.95 327.08c1.58 3.851 5.56 6.383 9.723 6.165 4.116-.215 7.764-3.007 9.027-6.93 1.28-3.977-.116-8.45-3.434-10.991-3.365-2.577-8.107-2.73-11.636-.384-3.921 2.606-5.487 7.8-3.68 12.14z"/></g></g></g></svg>