<svg xmlns="http://www.w3.org/2000/svg" viewBox="0 0 30 30"><g id="Artwork"><path id="Rectangle" d="M13.03682,3h3.92636c3.30361,0,4.6405.3713,5.9442,1.06853a7.26913,7.26913,0,0,1,3.02409,3.02409C26.6287,8.39632,27,9.73321,27,13.03682v3.92636c0,3.30361-.3713,4.6405-1.06853,5.9442a7.26913,7.26913,0,0,1-3.02409,3.02409C21.60368,26.6287,20.26679,27,16.96318,27H13.03682c-3.30361,0-4.6405-.3713-5.9442-1.06853a7.26913,7.26913,0,0,1-3.02409-3.02409C3.3713,21.60368,3,20.26679,3,16.96318V13.03682c0-3.30361.3713-4.6405,1.06853-5.9442A7.26913,7.26913,0,0,1,7.09262,4.06853C8.39632,3.3713,9.73321,3,13.03682,3Z" style="fill-rule:evenodd;opacity:0.20000000298023224;isolation:isolate"/><polygon id="Path" points="6.808 15.778 10.343 12.243 13.879 15.778 21.657 8 25.192 11.536 13.879 22.849 6.808 15.778" style="fill-rule:evenodd;opacity:0.800000011920929;isolation:isolate"/></g></svg>