<svg viewBox="0 0 320 256" xmlns="http://www.w3.org/2000/svg"><path d="m0 216.07892c7.51674 5.60337 15.03256 10.30845 21.91781 13.11873 30.68493 12.52446 86.41878 11.89824 117.72994-39.45205s13.15068-78.90411-2.50489-118.98239c-7.93806-20.32144-28.59337-48.20603-47.03026-70.76321h-90.1126z" fill="#add37f"/><path d="m119.60861 151.546c33.816 46.96673 102.70059 90.80235 134.01174 91.42857s41.95695-33.18982 47.593-93.93346c3.554-38.30457-17.29513-104.995-33.18406-149.0411h-207.08829c5.77649 58.43665 32.486 115.18261 58.66761 151.54599z" fill="#6ac5de"/><path d="m320 0h-44.401c-10.66338 24.66067-20.1 56.53238-20.1 83.91389 0 45.71429 16.908 65.75343 33.18983 66.37965 6.05258.23285 18.07741-2.21838 31.31115-6.16071z" fill="#8b5190"/><path d="m288.68885 150.29354a60.11052 60.11052 0 0 0 12.53963-1.43258c3.22121-35.555-14.44678-95.3865-29.68379-138.96473-8.88978 22.9272-16.04569 50.17459-16.04569 74.01766 0 45.71429 16.90805 65.75343 33.18985 66.37965z" fill="#594f8b"/><path d="m137.14286 70.76321c-7.93806-20.32144-28.59337-48.20599-47.03026-70.76321h-29.1716c5.77649 58.43666 32.486 115.18262 58.66761 151.546a218.32627 218.32627 0 0 0 25.33368 28.8587c23.76032-45.49578 6.87951-72.06337-7.79943-109.64149z" fill="#6ab27f"/></svg>