<svg xmlns="http://www.w3.org/2000/svg" viewBox="0 0 320 256"><defs><style>.cls-1{fill:#add37f;}.cls-2{fill:#6ac5de;}.cls-3{fill:#8b5190;}.cls-4{fill:#594f8b;}.cls-5{fill:#6ab27f;}</style></defs><g id="Artwork"><path class="cls-1" d="M0,216.07892c7.51674,5.60337,15.03256,10.30845,21.91781,13.11873,30.68493,12.52446,86.41878,11.89824,117.72994-39.45205s13.15068-78.90411-2.50489-118.98239C129.2048,50.44177,108.54949,22.55718,90.1126,0H0Z"/><path class="cls-2" d="M119.60861,151.546c33.816,46.96673,102.70059,90.80235,134.01174,91.42857s41.95695-33.18982,47.593-93.93346c3.554-38.30457-17.29513-104.995-33.18406-149.0411H60.941C66.71749,58.43666,93.427,115.18262,119.60861,151.546Z"/><path class="cls-3" d="M320,0H275.599c-10.66338,24.66067-20.1,56.53238-20.1,83.91389,0,45.71429,16.908,65.75343,33.18983,66.37965,6.05258.23285,18.07741-2.21838,31.31115-6.16071Z"/><path class="cls-4" d="M288.68885,150.29354a60.11052,60.11052,0,0,0,12.53963-1.43258c3.22121-35.555-14.44678-95.3865-29.68379-138.96473C262.65491,32.82343,255.499,60.07082,255.499,83.91389,255.499,129.62818,272.40705,149.66732,288.68885,150.29354Z"/><path class="cls-5" d="M137.14286,70.76321C129.2048,50.44177,108.54949,22.55722,90.1126,0H60.941C66.71749,58.43666,93.427,115.18262,119.60861,151.546a218.32627,218.32627,0,0,0,25.33368,28.8587C168.70261,134.90892,151.8218,108.34133,137.14286,70.76321Z"/></g></svg>