<svg xmlns="http://www.w3.org/2000/svg" viewBox="0 0 200 24"><g id="Artwork"><path d="M22.93945,2.0332l-3.21972,19.604a1.60422,1.60422,0,0,1-.623,1.189,2.23413,2.23413,0,0,1-1.1748.29H16.6748a1.50752,1.50752,0,0,1-1.04394-.3916,2.08639,2.08639,0,0,1-.6084-1.05859l-2.84277-10.73a.81023.81023,0,0,0-.08692-.23194.11893.11893,0,0,0-.08691-.0293h-.05762a.11737.11737,0,0,0-.08691.0293.77929.77929,0,0,0-.08692.23194L8.90332,21.666A2.09457,2.09457,0,0,1,8.294,22.72461a1.50754,1.50754,0,0,1-1.044.3916H6.03223a2.23415,2.23415,0,0,1-1.17481-.29,1.59791,1.59791,0,0,1-.623-1.189L1.01465,2.0332V1.9458a.43569.43569,0,0,1,.49316-.49268H3.19043q.40576,0,.49219.49268L6.49609,20.419a1.619,1.619,0,0,1,.05762.33349c0,.06787.0293.10156.08691.10156.07715,0,.14551-.145.20313-.43505l2.8418-10.73a1.32489,1.32489,0,0,1,1.36328-1.16015h1.85644A1.324,1.324,0,0,1,14.26758,9.689l2.84277,10.73q.08643.435.20313.43505c.05761,0,.08691-.03369.08691-.10156A1.55356,1.55356,0,0,1,17.458,20.419L20.27148,1.9458q.08643-.49218.49219-.49268h1.68262a.43608.43608,0,0,1,.49316.49268Z"/><path d="M37.26562,15.19922q0,.63794-.5498.63769h-9.6875v.40625A5.25778,5.25778,0,0,0,28.043,19.897a3.96141,3.96141,0,0,0,3.0166,1.07324q1.27589,0,2.71094-.0874,1.43554-.08642,2.45117-.23193h.14453a.61267.61267,0,0,1,.31934.08691.34117.34117,0,0,1,.14453.31934V22.043a.76317.76317,0,0,1-.11524.44971A.69879.69879,0,0,1,36.25,22.71q-1.24657.23219-2.47949.36231a25.758,25.758,0,0,1-2.71094.13085,9.00471,9.00471,0,0,1-2.43652-.33349,5.34518,5.34518,0,0,1-2.10254-1.13135A5.7479,5.7479,0,0,1,25.042,19.60693a8.66308,8.66308,0,0,1-.56543-3.36377V13.63281a7.12917,7.12917,0,0,1,1.64844-4.959,6.10324,6.10324,0,0,1,4.77441-1.82666,7.39138,7.39138,0,0,1,2.77832.47851,5.27654,5.27654,0,0,1,1.98145,1.3628,5.83343,5.83343,0,0,1,1.20117,2.146,9.13562,9.13562,0,0,1,.40527,2.79834Zm-2.55273-1.56641a5.20633,5.20633,0,0,0-.94238-3.50879,3.65659,3.65659,0,0,0-2.85645-1.04394,3.69626,3.69626,0,0,0-2.88476,1.10205,5.02216,5.02216,0,0,0-1.001,3.45068V13.894h7.68457Z"/><path d="M50.86621,18.99805a4.27091,4.27091,0,0,1-.3916,1.89941,3.44436,3.44436,0,0,1-1.10254,1.30518,4.94218,4.94218,0,0,1-1.71094.7539,9.29034,9.29034,0,0,1-2.21875.24658q-.40575,0-.9707-.01464-.56542-.01465-1.18945-.07227-.624-.05859-1.26172-.13086a7.48647,7.48647,0,0,1-1.16016-.21728q-.6079-.145-.6084-.58008V21.17285a.38664.38664,0,0,1,.14453-.31885.58688.58688,0,0,1,.377-.11621h.11621q.52147.0586,1.14551.11621.624.05861,1.26172.10157.6372.04322,1.18847.07226.55079.02929.957.0293a4.24248,4.24248,0,0,0,2.14649-.43506,1.73491,1.73491,0,0,0,.72461-1.624,1.63771,1.63771,0,0,0-.46387-1.16016,8.7086,8.7086,0,0,0-1.71094-1.24707L43.21,14.85107a8.54352,8.54352,0,0,1-2.14648-1.78369A3.56374,3.56374,0,0,1,40.252,10.7041a3.84742,3.84742,0,0,1,.40625-1.8706,3.25589,3.25589,0,0,1,1.10157-1.189A4.50232,4.50232,0,0,1,43.41309,7.021,11.6699,11.6699,0,0,1,45.501,6.84717q1.21728,0,2.36328.10156,1.14551.1018,2.16015.27539c.36719.05811.55176.25147.55176.58008v.957a.43588.43588,0,0,1-.49316.49268h-.08692q-.75439-.05787-2.01562-.145T45.501,9.022a5.47728,5.47728,0,0,0-1.958.29q-.73976.29-.73926,1.39209a1.53918,1.53918,0,0,0,.49317,1.14551,7.7062,7.7062,0,0,0,1.50781,1.05859l2.87109,1.71094A7.92151,7.92151,0,0,1,50.16992,16.707,3.95824,3.95824,0,0,1,50.86621,18.99805Z"/><path d="M62.37988,22.55762c0,.2749-.1748.4414-.52246.50049q-.43506.05785-.957.10156-.52149.04322-.92773.04345a8.45073,8.45073,0,0,1-1.75489-.15966A2.57813,2.57813,0,0,1,57,22.44922a2.69225,2.69225,0,0,1-.72461-1.18945,6.35267,6.35267,0,0,1-.24707-1.94288V9.1958L53.21582,8.877q-.55224-.05785-.55176-.522v-.7832q0-.52149.55176-.522h2.8125V4.208a.54383.54383,0,0,1,.52246-.58008L58.05859,3.396h.08692a.41745.41745,0,0,1,.30469.13037.49039.49039,0,0,1,.12988.36279V7.0498h3.13281a.595.595,0,0,1,.5791.58008v.98633a.5941.5941,0,0,1-.5791.57959H58.58008V19.29248a2.1646,2.1646,0,0,0,.34863,1.5044,1.80785,1.80785,0,0,0,1.21777.31835h1.624q.60938,0,.60937.41211Z"/><path d="M77.34277,15.19922q0,.63794-.5498.63769h-9.6875v.40625A5.25778,5.25778,0,0,0,68.12012,19.897a3.9614,3.9614,0,0,0,3.0166,1.07324q1.27587,0,2.71094-.0874,1.43554-.08642,2.45117-.23193h.14453a.61267.61267,0,0,1,.31934.08691.34117.34117,0,0,1,.14453.31934V22.043a.76325.76325,0,0,1-.11524.44971.69879.69879,0,0,1-.46484.21728q-1.24659.23219-2.47949.36231a25.758,25.758,0,0,1-2.71094.13085,9.00465,9.00465,0,0,1-2.43652-.33349,5.34518,5.34518,0,0,1-2.10254-1.13135,5.74778,5.74778,0,0,1-1.47852-2.13135,8.66308,8.66308,0,0,1-.56543-3.36377V13.63281a7.12917,7.12917,0,0,1,1.64844-4.959,6.10322,6.10322,0,0,1,4.77441-1.82666,7.39138,7.39138,0,0,1,2.77832.47851,5.27662,5.27662,0,0,1,1.98145,1.3628,5.83343,5.83343,0,0,1,1.20117,2.146,9.13562,9.13562,0,0,1,.40527,2.79834ZM74.79,13.63281a5.20633,5.20633,0,0,0-.94238-3.50879,3.65659,3.65659,0,0,0-2.85645-1.04394,3.69626,3.69626,0,0,0-2.88476,1.10205,5.02216,5.02216,0,0,0-1.001,3.45068V13.894H74.79Z"/><path d="M88.01465,8.58057q0,.4995-.6084.49951a6.95721,6.95721,0,0,0-1.958.2749,8.76619,8.76619,0,0,0-2.04394.94043v12.126A.595.595,0,0,1,82.82422,23h-1.4209a.50935.50935,0,0,1-.3916-.17383.582.582,0,0,1-.16016-.40625v-14.79a.58166.58166,0,0,1,.16016-.40576.50817.50817,0,0,1,.3916-.17432h1.3623a.50853.50853,0,0,1,.39161.17676.59718.59718,0,0,1,.15918.4126v.61816A8.1589,8.1589,0,0,1,85.419,7.16992a6.45211,6.45211,0,0,1,1.9873-.32275q.60791,0,.6084.52881Z"/><path d="M102.97852,22.41992A.594.594,0,0,1,102.39844,23h-1.3916a.5932.5932,0,0,1-.58008-.57861V12.8999a7.54857,7.54857,0,0,0-.18848-1.8374,2.73392,2.73392,0,0,0-.58008-1.17236,2.18706,2.18706,0,0,0-1-.62207,4.84459,4.84459,0,0,0-1.4209-.188,6.21688,6.21688,0,0,0-1.91406.31836,15.51139,15.51139,0,0,0-2.001.81006V22.42139A.595.595,0,0,1,92.74219,23h-1.4209a.50935.50935,0,0,1-.3916-.17383.582.582,0,0,1-.16016-.40625v-14.79a.58166.58166,0,0,1,.16016-.40576.50817.50817,0,0,1,.3916-.17432h1.44922a.50708.50708,0,0,1,.3916.17676.59812.59812,0,0,1,.16016.4126v.55957A12.88486,12.88486,0,0,1,95.584,7.18506a7.6128,7.6128,0,0,1,2.34864-.33789,4.542,4.542,0,0,1,3.84277,1.56592,7.20549,7.20549,0,0,1,1.20313,4.46582Z"/><path d="M129.57129,22.41992A.594.594,0,0,1,128.99121,23H127.5127a.59322.59322,0,0,1-.58008-.57812V12.8208h-9.918v9.60108A.595.595,0,0,1,116.43457,23h-1.47949a.594.594,0,0,1-.58008-.58008V2.0332a.55993.55993,0,0,1,.17383-.40625.55884.55884,0,0,1,.40625-.17383h1.47949a.55509.55509,0,0,1,.40527.17383.55717.55717,0,0,1,.17481.40625v8.40967h9.918V2.0332a.55612.55612,0,0,1,.17383-.40625.55724.55724,0,0,1,.40625-.17383h1.47851a.594.594,0,0,1,.58008.58008Z"/><path d="M146.07227,15.19922q0,.63794-.54981.63769H135.835v.40625a5.25778,5.25778,0,0,0,1.01465,3.65381,3.96141,3.96141,0,0,0,3.0166,1.07324q1.27589,0,2.71094-.0874,1.43555-.08642,2.45117-.23193h.14453a.61267.61267,0,0,1,.31934.08691.34117.34117,0,0,1,.14453.31934V22.043a.76317.76317,0,0,1-.11524.44971.69879.69879,0,0,1-.46484.21728q-1.24657.23219-2.47949.36231a25.758,25.758,0,0,1-2.71094.13085,9.00471,9.00471,0,0,1-2.43652-.33349,5.34518,5.34518,0,0,1-2.10254-1.13135,5.7479,5.7479,0,0,1-1.47852-2.13135,8.66308,8.66308,0,0,1-.56543-3.36377V13.63281a7.12917,7.12917,0,0,1,1.64844-4.959,6.10324,6.10324,0,0,1,4.77441-1.82666,7.39147,7.39147,0,0,1,2.77833.47851,5.27658,5.27658,0,0,1,1.98144,1.3628,5.83343,5.83343,0,0,1,1.20117,2.146,9.13562,9.13562,0,0,1,.40528,2.79834Zm-2.55274-1.56641a5.20633,5.20633,0,0,0-.94238-3.50879,3.65659,3.65659,0,0,0-2.85645-1.04394,3.69626,3.69626,0,0,0-2.88476,1.10205,5.02221,5.02221,0,0,0-1.001,3.45068V13.894h7.68457Z"/><path d="M160.6875,22.41992A.594.594,0,0,1,160.10742,23h-1.334a.594.594,0,0,1-.58008-.58008v-.63769a13.57675,13.57675,0,0,1-2.14551,1.01465,6.66754,6.66754,0,0,1-2.32031.40624,7.199,7.199,0,0,1-1.7832-.21777,3.72413,3.72413,0,0,1-1.50879-.76855,3.896,3.896,0,0,1-1.04395-1.44971A5.68893,5.68893,0,0,1,149,18.50488v-.34765a5.35385,5.35385,0,0,1,.36328-2.04493,3.38072,3.38072,0,0,1,1.18848-1.479,5.78212,5.78212,0,0,1,2.16015-.88428,15.75732,15.75732,0,0,1,3.27735-.29h2.14648V12.29883a3.66535,3.66535,0,0,0-.69629-2.55176,3.259,3.259,0,0,0-2.40722-.7251q-1.42091,0-2.49414.07276-1.07228.07251-1.94239.15918h-.1455a.74179.74179,0,0,1-.36231-.08692c-.10644-.0581-.15918-.18359-.15918-.377V7.7749q0-.46362.6084-.55078.89941-.145,1.958-.26123a23.79017,23.79017,0,0,1,2.53711-.11572q3.01611,0,4.33593,1.44971a5.73139,5.73139,0,0,1,1.31934,4.002Zm-2.55176-7.13379h-2.14648a12.40353,12.40353,0,0,0-2.17481.15918,3.60749,3.60749,0,0,0-1.36328.49317,1.79658,1.79658,0,0,0-.69531.87011,3.73939,3.73939,0,0,0-.20313,1.31934v.34814a2.5489,2.5489,0,0,0,.69532,2.10254,3.16834,3.16834,0,0,0,1.97265.53662,6.47811,6.47811,0,0,0,1.94239-.29,10.62813,10.62813,0,0,0,1.97265-.87012Z"/><path d="M167.47363,22.41992a.61524.61524,0,0,1-.14551.40625.4687.4687,0,0,1-.377.17383h-1.50781a.46739.46739,0,0,1-.377-.17383.61019.61019,0,0,1-.14551-.40625V1.74316a.55689.55689,0,0,1,.14551-.3916.48628.48628,0,0,1,.377-.15967h1.50781a.48769.48769,0,0,1,.377.15967.56129.56129,0,0,1,.14551.3916Z"/><path d="M180.17578,22.55762c0,.2749-.1748.4414-.52246.50049q-.43506.05785-.957.10156-.52149.04322-.92774.04345a8.4507,8.4507,0,0,1-1.75488-.15966,2.57808,2.57808,0,0,1-1.21777-.59424,2.69225,2.69225,0,0,1-.72461-1.18945,6.35267,6.35267,0,0,1-.24707-1.94288V9.1958l-2.8125-.31885q-.55225-.05785-.55176-.522v-.7832q0-.52149.55176-.522h2.8125V4.208a.54383.54383,0,0,1,.52246-.58008l1.50781-.23193h.08692a.41741.41741,0,0,1,.30468.13037.49035.49035,0,0,1,.12989.36279V7.0498h3.13281a.595.595,0,0,1,.5791.58008v.98633a.5941.5941,0,0,1-.5791.57959H176.376V19.29248a2.1646,2.1646,0,0,0,.34863,1.5044,1.80782,1.80782,0,0,0,1.21777.31835h1.624q.60938,0,.60937.41211Z"/><path d="M195.08105,22.41992A.594.594,0,0,1,194.501,23h-1.3916a.594.594,0,0,1-.58008-.58008v-9.541a4.11657,4.11657,0,0,0-.84082-2.98682,3.12254,3.12254,0,0,0-2.26172-.812q-.34863,0-.82715.04346-.47754.0432-1.0293.145-.55078.10182-1.11621.26075a7.95568,7.95568,0,0,0-1.0293.36279V22.41992A.59584.59584,0,0,1,184.84473,23h-1.4209a.50934.50934,0,0,1-.3916-.17383.582.582,0,0,1-.16016-.40625V1.772a.58166.58166,0,0,1,.16016-.40576.50815.50815,0,0,1,.3916-.17432h1.44922a.50962.50962,0,0,1,.3916.17432.5817.5817,0,0,1,.16015.40576V7.74609a9.75394,9.75394,0,0,1,2.27637-.68164,12.61774,12.61774,0,0,1,2.16016-.21728,6.157,6.157,0,0,1,2.11719.34765,4.30871,4.30871,0,0,1,1.65332,1.07325,4.83183,4.83183,0,0,1,1.07226,1.8706,8.82184,8.82184,0,0,1,.37695,2.74024Z"/></g></svg>