<svg xmlns="http://www.w3.org/2000/svg" viewBox="0 0 30 30"><g id="Artwork"><path d="M9.8877,17.0625h1.55371a1.3335,1.3335,0,1,1-.02051,2.66113h-.7002V21h-.833Zm1.39843,1.99316a.65836.65836,0,1,0-.0039-1.3125H10.7207v1.3125Z"/><path d="M13.54785,21V17.0625h1.4082a1.78952,1.78952,0,0,1,1.91407,1.96484A1.79682,1.79682,0,0,1,14.94434,21Zm1.36133-.71387c.74023,0,1.13086-.37988,1.13086-1.25879,0-.875-.39063-1.25195-1.12891-1.25195h-.53027v2.51074Z"/><path d="M17.63672,17.0625h2.60742V17.749H18.46973v.9375h1.60156v.68653H18.46973V21h-.833Z"/><path d="M22.967,7.967,19.033,4.033A3.52684,3.52684,0,0,0,16.53918,3H8A2,2,0,0,0,6,5V25a2,2,0,0,0,2,2H22a2,2,0,0,0,2-2V10.46088A3.527,3.527,0,0,0,22.967,7.967ZM22,25H8V5h8v6h6Z"/></g></svg>