<svg xmlns="http://www.w3.org/2000/svg" viewBox="0 0 30 30"><g id="Artwork"><path d="M6.15454,15.96838H5.28687v2.02771H6.1604a1.01711,1.01711,0,1,0-.00586-2.02771Z"/><path d="M26.967,7.967,23.033,4.033A3.52684,3.52684,0,0,0,20.53918,3H12a2,2,0,0,0-2,2v8H4a2,2,0,0,0-2,2v6a2.00006,2.00006,0,0,0,2,2h6v2a2,2,0,0,0,2,2H26a2,2,0,0,0,2-2V10.46088A3.527,3.527,0,0,0,26.967,7.967ZM6.36865,19.02808H5.28687V21H4V14.91681H6.40039a2.06018,2.06018,0,1,1-.03174,4.11127ZM11.81213,21H9.65466V14.91681h2.17566a2.76472,2.76472,0,0,1,2.957,3.03558A2.776,2.776,0,0,1,11.81213,21ZM26,25H12V23h8a2.00006,2.00006,0,0,0,2-2V15a2,2,0,0,0-2-2H12V5h8v6h6Zm-6.26709-7.57416v1.06061H17.25867V21h-1.287V14.91681H20v1.06067H17.25867v1.44836Z"/><path d="M11.76086,16.01819h-.81921v3.8789h.81616c1.14368,0,1.74707-.58685,1.74707-1.9447C13.50488,16.60052,12.90149,16.01819,11.76086,16.01819Z"/></g></svg>