<svg xmlns="http://www.w3.org/2000/svg" viewBox="0 0 30 30"><g id="Artwork"><path d="M15,5A10,10,0,1,1,5,15,10.01133,10.01133,0,0,1,15,5m0-2A12,12,0,1,0,27,15,12,12,0,0,0,15,3Z"/><path d="M14.02246,18.08691c0-4.16308,3.09717-3.81445,3.09717-6.18212a1.7023,1.7023,0,0,0-1.82129-1.86768A1.78194,1.78194,0,0,0,13.437,11.99072H11.37842c.00683-2.38769,1.72314-3.64355,3.91992-3.64355,2.41357,0,3.82715,1.42041,3.82715,3.5708,0,3.15039-3.20264,2.93994-3.229,6.16894Zm-.42773,2.74268a1.37477,1.37477,0,1,1,1.38134,1.34814A1.344,1.344,0,0,1,13.59473,20.82959Z"/></g></svg>