<svg xmlns="http://www.w3.org/2000/svg" viewBox="0 0 30 30"><g id="Artwork"><path d="M15,3A12,12,0,1,0,27,15,12,12,0,0,0,15,3Zm-.02393,19.17773a1.355,1.355,0,1,1,0-2.70947,1.3548,1.3548,0,1,1,0,2.70947Zm.92041-4.09082h-1.874c0-4.16308,3.09717-3.81445,3.09717-6.18212a1.7023,1.7023,0,0,0-1.82129-1.86768A1.78194,1.78194,0,0,0,13.437,11.99072H11.37842c.00683-2.38769,1.72314-3.64355,3.91992-3.64355,2.41357,0,3.82715,1.42041,3.82715,3.5708C19.12549,15.06836,15.92285,14.85791,15.89648,18.08691Z"/></g></svg>