<svg xmlns="http://www.w3.org/2000/svg" viewBox="0 0 30 30"><g id="Artwork"><path d="M26.967,7.967,23.033,4.033A3.52684,3.52684,0,0,0,20.53918,3H12a2,2,0,0,0-2,2V25a2,2,0,0,0,2,2H26a2,2,0,0,0,2-2V10.46088A3.527,3.527,0,0,0,26.967,7.967ZM26,25H12V5h8v6h6Z"/><rect x="2" y="13" width="20" height="10" rx="2"/><path d="M4,14.91683H6.40038a2.06018,2.06018,0,1,1-.03169,4.11127H5.28694V21H4Zm2.16049,3.0793a1.01711,1.01711,0,1,0-.006-2.02772H5.28694v2.02772Z" style="fill:#fff"/><path d="M9.65469,21V14.91683h2.17558a2.76468,2.76468,0,0,1,2.95709,3.03555A2.77594,2.77594,0,0,1,11.81216,21Zm2.10316-1.10288c1.14361,0,1.7471-.58689,1.7471-1.94474,0-1.35181-.60349-1.93418-1.74408-1.93418h-.81924v3.87892Z" style="fill:#fff"/><path d="M15.97171,14.91683H20v1.06063H17.25865v1.44838H19.733v1.06063H17.25865V21H15.97171Z" style="fill:#fff"/></g></svg>