<svg xmlns="http://www.w3.org/2000/svg" viewBox="0 0 30 30"><g id="Artwork"><path d="M24,13a1,1,0,0,1-1-1V7H18a1,1,0,0,1,0-2h7v7A1,1,0,0,1,24,13Z"/><path d="M24.99994,23.36547l-4.5921-4.5921a4.48887,4.48887,0,0,0-1.32764.22457l-.31153.10388-1.96762,1.96763h0A12.44436,12.44436,0,0,1,8.93055,13.199h0l1.96763-1.96762.10382-.31159a4.48661,4.48661,0,0,0,.22457-1.32764L6.63447,5a4.48889,4.48889,0,0,0-1.32764.22458l-.31153.10388L3.9738,7.031a6.83331,6.83331,0,0,0-.25239,6.57164h0a28.34431,28.34431,0,0,0,12.676,12.676h0A6.83331,6.83331,0,0,0,22.969,26.0262l1.70251-1.0215.10382-.31159A4.48662,4.48662,0,0,0,24.99994,23.36547Z"/><path d="M15,16a1,1,0,0,1-.707-1.707l9-9A.99989.99989,0,0,1,24.707,6.707l-9,9A.99676.99676,0,0,1,15,16Z"/></g></svg>