<svg xmlns="http://www.w3.org/2000/svg" viewBox="0 0 30 30"><g id="Artwork"><path d="M24.13165,17.35724l2.709-.40241a12.06939,12.06939,0,0,0,0-3.90966l-2.709-.40241a1.53534,1.53534,0,0,1-1.00775-2.433l1.63062-2.19959a12.069,12.069,0,0,0-2.76465-2.76471L19.79022,6.8761a1.53532,1.53532,0,0,1-2.433-1.00775l-.40241-2.709a12.06939,12.06939,0,0,0-3.90966,0l-.40241,2.709a1.53532,1.53532,0,0,1-2.433,1.00775L8.01013,5.24542A12.069,12.069,0,0,0,5.24548,8.01013L6.8761,10.20972a1.53534,1.53534,0,0,1-1.00775,2.433l-2.709.40241a12.06939,12.06939,0,0,0,0,3.90966l2.709.40241a1.53529,1.53529,0,0,1,1.00775,2.433L5.24542,21.98987a12.0693,12.0693,0,0,0,2.76471,2.76471l2.19965-1.63068a1.5353,1.5353,0,0,1,2.433,1.00775l.40241,2.709a12.06939,12.06939,0,0,0,3.90966,0l.40241-2.709a1.5353,1.5353,0,0,1,2.433-1.00775l2.19965,1.63068a12.0693,12.0693,0,0,0,2.76471-2.76471L23.1239,19.79022A1.53529,1.53529,0,0,1,24.13165,17.35724ZM15,21a6,6,0,1,1,6-6A6,6,0,0,1,15,21Z"/></g></svg>